<?xml version="1.0" encoding="UTF-8" standalone="no"?>
<svg width="169px" height="50px" viewBox="0 0 169 50" version="1.1" xmlns="http://www.w3.org/2000/svg" xmlns:xlink="http://www.w3.org/1999/xlink" xmlns:sketch="http://www.bohemiancoding.com/sketch/ns">
    <!-- Generator: Sketch 3.0.3 (7891) - http://www.bohemiancoding.com/sketch -->
    <title>Dribbble</title>
    <desc>Created with Sketch.</desc>
    <defs></defs>
    <g id="Page-1" stroke="none" stroke-width="1" fill="none" fill-rule="evenodd" sketch:type="MSPage">
        <g id="Dribbble" sketch:type="MSArtboardGroup">
            <path d="M2.16583913,48.016129 L54.7219324,48.016129" id="Line-2" stroke="#FFFFFF" stroke-width="3.981312" stroke-linecap="square" sketch:type="MSShapeGroup"></path>
            <path d="M2.16583913,2.01612903 L54.7219324,2.01612903" id="Line-63" stroke="#FFFFFF" stroke-width="3.981312" stroke-linecap="square" sketch:type="MSShapeGroup"></path>
            <path d="M23.5536404,37.9760353 L16.5771346,37.9760353 L16.0753442,34.8055023 L11.5268566,34.8055023 L10.9765058,37.9760353 L4,37.9760353 L10.0052985,13 L18.2605606,13 L23.5536404,37.9760353 Z M15.2821915,29.4511839 L14.8451482,26.5394699 C14.834357,26.5286857 14.8127748,26.3831015 14.7804011,26.1027128 C14.7588186,25.8654609 14.6455122,24.9272513 14.4404785,23.288056 C14.418896,23.1047249 14.3919183,22.8539965 14.3595446,22.5358632 C14.3271708,22.2177299 14.2840065,21.8160252 14.2300503,21.3307372 L14.019622,18.9690136 C13.9980395,19.1954814 13.968364,19.4489058 13.9305947,19.7292945 C13.8928253,20.0096832 13.8523588,20.3170277 13.8091938,20.6513372 C13.733655,21.3199564 13.6796996,21.7836691 13.6473259,22.0424895 C13.6149522,22.3013098 13.59337,22.457678 13.5825787,22.5115989 L13.1131619,25.5365462 L12.4333168,29.4511839 L15.2821915,29.4511839 Z M38.9149121,37.9760353 L27.0985566,37.9760353 L27.0985566,13 L33.8484473,13 L33.8484473,31.9746693 L38.9149121,31.9746693 L38.9149121,37.9760353 Z M54.3247442,37.9760353 L42.5083886,37.9760353 L42.5083886,13 L49.2582794,13 L49.2582794,31.9746693 L54.3247442,31.9746693 L54.3247442,37.9760353 Z" id="ALL" fill="#FFFFFF" sketch:type="MSShapeGroup"></path>
            <path d="M64,50.0042599 L64,0 L75.6052615,0 C82.2460833,0 87.4146712,1.7920173 91.1111804,5.37610566 C95.9682215,10.0613296 98.3967057,16.6140676 98.3967057,25.0345161 C98.3967057,33.3254193 96.3443142,39.7270233 92.2394697,44.2395201 C88.7363825,48.0826992 83.5140671,50.0042599 76.5723667,50.0042599 L64,50.0042599 Z M76.1223404,37.9242152 C80.9363989,37.6867154 83.343392,33.5197354 83.343392,25.4231503 C83.343392,21.4288349 82.7308982,18.2766117 81.5058923,15.9663861 C80.2808863,13.6345696 78.6260785,12.4686788 76.5414193,12.4686788 L76.1223404,12.4686788 L76.1223404,37.9242152 Z M136.989216,50.0042599 L123.095139,50.0042599 L122.095797,43.6565689 L113.037246,43.6565689 L111.941194,50.0042599 L98.0471167,50.0042599 L110.006983,0 L126.447771,0 L136.989216,50.0042599 Z M119.525877,32.9367437 L118.655482,27.1072316 C118.633991,27.0856407 118.591009,26.794168 118.526535,26.2328047 C118.483552,25.7578051 118.257897,23.8794255 117.849561,20.5976096 C117.806579,20.2305644 117.752851,19.7285837 117.688377,19.0916523 C117.623903,18.454721 117.537939,17.6504722 117.430482,16.678882 L117.011403,11.9504999 C116.968421,12.4039087 116.909321,12.9112871 116.834101,13.4726503 C116.758881,14.0340136 116.67829,14.6493448 116.592325,15.3186625 C116.441885,16.6572979 116.33443,17.5856924 116.269956,18.1038739 C116.205482,18.6220553 116.1625,18.9351186 116.141009,19.0430731 L115.206141,25.0992885 L113.852193,32.9367437 L119.525877,32.9367437 Z M157.118706,50.0042599 L143.675944,50.0042599 L143.675944,28.823699 L131.329235,0 L145.35226,0 L147.770023,7.41643492 C148.242832,8.8630248 148.667279,10.2556166 149.043378,11.594252 C149.419476,12.9328874 149.757959,14.2175263 150.058838,15.4482072 C150.553139,13.6129813 150.982959,12.031472 151.348312,10.7036321 C151.713664,9.37579209 152.036029,8.30166124 152.315417,7.48120727 L154.765416,0 L168.69173,0 L157.118706,28.823699 L157.118706,50.0042599 Z" id="DAY-2" fill="#FFFFFF" sketch:type="MSShapeGroup"></path>
        </g>
    </g>
</svg>